<?xml version="1.0" standalone="no"?>
<!DOCTYPE svg PUBLIC "-//W3C//DTD SVG 20010904//EN"
 "http://www.w3.org/TR/2001/REC-SVG-20010904/DTD/svg10.dtd">
<svg version="1.0" xmlns="http://www.w3.org/2000/svg"
 width="512.000000pt" height="512.000000pt" viewBox="0 0 512.000000 512.000000"
 preserveAspectRatio="xMidYMid meet">
<metadata>
Created by potrace 1.14, written by Peter Selinger 2001-2017
</metadata>
<g transform="translate(0.000000,512.000000) scale(0.100000,-0.100000)"
fill="#000000" stroke="none">
<path d="M105 4802 c-38 -13 -67 -37 -86 -74 -18 -35 -19 -64 -19 -513 0 -551
-1 -543 87 -589 54 -27 126 -15 170 30 40 40 43 70 43 469 l0 385 395 0 c377
0 398 1 435 20 84 43 105 161 40 231 -45 49 -47 49 -562 48 -266 -1 -492 -4
-503 -7z"/>
<path d="M2359 4798 c-24 -4 -71 -13 -104 -19 -33 -6 -70 -13 -83 -15 -63 -12
-245 -80 -340 -127 -324 -160 -572 -404 -735 -721 -72 -141 -101 -215 -137
-358 -24 -93 -25 -120 -4 -161 33 -65 86 -92 158 -82 64 10 101 50 127 140 64
220 106 314 200 454 165 248 434 452 704 534 172 53 229 60 455 61 214 1 234
7 269 79 26 54 26 80 1 131 -27 55 -57 74 -132 85 -73 11 -313 10 -379 -1z"/>
<path d="M4015 4802 c-42 -14 -75 -45 -91 -88 -29 -76 -2 -148 69 -186 29 -15
74 -17 429 -18 l397 0 3 -402 3 -403 24 -31 c55 -74 158 -83 224 -19 19 18 37
48 41 65 3 18 6 244 6 502 0 499 0 503 -49 548 -42 39 -58 40 -554 39 -265 -1
-491 -4 -502 -7z"/>
<path d="M3295 4602 c-75 -16 -126 -72 -127 -139 0 -68 27 -110 99 -154 45
-28 147 -101 166 -120 8 -8 32 -30 54 -50 131 -118 260 -311 331 -497 69 -177
90 -312 91 -592 2 -221 4 -241 34 -282 62 -84 200 -71 247 23 21 41 22 51 17
293 -5 281 -8 303 -52 497 -41 183 -167 432 -309 613 -54 69 -210 220 -289
279 -139 105 -211 140 -262 129z"/>
<path d="M2448 4205 c-2 -2 -23 -6 -48 -9 -271 -36 -554 -217 -712 -456 -68
-104 -126 -234 -149 -335 -27 -121 -27 -132 -28 -587 l-1 -408 -149 0 -150 0
-3 253 c-3 247 -3 253 -27 283 -67 90 -200 80 -253 -19 -15 -28 -17 -65 -18
-274 l0 -242 -408 -3 -407 -3 -31 -24 c-87 -65 -78 -203 16 -251 37 -19 58
-20 435 -20 l395 0 0 -529 c0 -291 3 -543 6 -561 9 -43 65 -97 109 -106 76
-14 149 26 173 95 9 24 12 185 12 567 l0 534 150 0 150 0 0 -390 c0 -444 0
-444 79 -488 73 -41 158 -16 201 59 19 35 20 52 20 428 l0 391 450 0 450 0 0
-840 c0 -922 -3 -875 59 -927 65 -55 181 -31 220 46 21 40 21 51 21 881 l0
840 150 0 150 0 0 -840 c0 -869 0 -868 40 -911 23 -25 76 -49 107 -49 52 1
110 35 132 79 21 40 21 52 21 881 l0 840 150 0 150 0 0 -529 c0 -291 3 -542 6
-559 8 -39 49 -84 91 -101 42 -17 110 -7 144 22 60 50 59 36 59 627 l0 540
395 0 c420 0 430 1 476 49 51 54 46 159 -10 211 -42 40 -49 40 -766 40 l-695
0 0 393 0 393 -29 45 c-23 37 -37 48 -72 58 -78 22 -146 -4 -179 -69 -19 -37
-20 -58 -20 -430 l0 -390 -150 0 -150 0 -1 248 c-1 260 -1 261 -20 332 -65
230 -335 373 -564 298 -105 -35 -205 -117 -257 -210 -49 -89 -58 -151 -58
-421 l0 -247 -150 0 -150 0 0 409 c0 427 5 486 47 601 76 205 252 376 458 447
94 33 161 42 275 38 120 -4 181 -19 300 -73 51 -23 155 -97 199 -142 49 -49
99 -80 132 -80 72 0 143 54 155 117 13 66 -3 101 -79 177 -197 197 -464 305
-749 304 -54 -1 -99 -2 -100 -3z m178 -1215 c78 -38 79 -42 82 -327 l3 -253
-150 0 -151 0 0 239 c0 132 4 250 9 264 5 13 23 37 40 53 51 48 102 55 167 24z"/>
<path d="M2193 1793 c-17 -10 -42 -31 -55 -48 l-23 -30 -3 -642 c-2 -630 -2
-644 18 -683 22 -44 80 -80 127 -80 52 1 110 35 132 79 21 39 21 53 21 673 -1
698 2 668 -64 719 -38 30 -110 35 -153 12z"/>
<path d="M76 1486 c-77 -46 -75 -31 -76 -570 0 -468 1 -481 21 -523 14 -30 33
-50 60 -63 36 -19 61 -20 518 -20 528 0 536 1 580 60 59 81 21 204 -72 231
-17 5 -206 9 -419 9 l-388 0 -1 383 c-1 210 -2 387 -3 392 -8 52 -44 95 -95
113 -50 18 -81 15 -125 -12z"/>
<path d="M4905 1493 c-38 -20 -49 -32 -69 -70 -14 -28 -16 -81 -16 -423 l0
-390 -392 0 c-365 0 -396 -2 -435 -19 -113 -52 -107 -217 10 -269 34 -15 982
-18 1019 -3 37 15 74 53 86 90 9 25 12 168 12 509 -1 442 -2 477 -19 511 -35
69 -130 100 -196 64z"/>
<path d="M1600 897 c-41 -19 -79 -69 -85 -112 -4 -22 -5 -116 -3 -210 3 -161
4 -172 27 -202 25 -34 84 -63 127 -63 47 0 104 38 125 83 16 36 19 67 19 221
0 166 -1 181 -22 218 -37 66 -122 95 -188 65z"/>
</g>
</svg>
